<svg width="28" height="31" viewBox="0 0 28 31" fill="none" xmlns="http://www.w3.org/2000/svg">
<g filter="url(#filter0_d_1_1236)">
<path fill-rule="evenodd" clip-rule="evenodd" d="M22.8067 7.62355L22.1842 6.54346C21.6577 5.62954 20.4907 5.31426 19.5755 5.83866V5.83866C19.1399 6.09528 18.6201 6.16809 18.1307 6.04103C17.6413 5.91396 17.2226 5.59746 16.9668 5.16131C16.8023 4.88409 16.7139 4.56833 16.7105 4.24598V4.24598C16.7254 3.72916 16.5304 3.22834 16.17 2.85761C15.8096 2.48688 15.3145 2.2778 14.7975 2.27802H13.5435C13.037 2.27801 12.5513 2.47985 12.194 2.83888C11.8367 3.19791 11.6372 3.68453 11.6396 4.19106V4.19106C11.6246 5.23686 10.7725 6.07675 9.72657 6.07664C9.40421 6.07329 9.08846 5.98488 8.81123 5.82035V5.82035C7.89606 5.29595 6.72911 5.61123 6.20254 6.52516L5.53435 7.62355C5.00841 8.53633 5.3194 9.70255 6.23 10.2322V10.2322C6.8219 10.574 7.18653 11.2055 7.18653 11.889C7.18653 12.5725 6.8219 13.204 6.23 13.5457V13.5457C5.32056 14.0719 5.00923 15.2353 5.53435 16.1453V16.1453L6.16593 17.2345C6.41265 17.6797 6.8266 18.0082 7.31619 18.1474C7.80578 18.2865 8.33064 18.2248 8.77462 17.976V17.976C9.21108 17.7213 9.73119 17.6515 10.2193 17.7821C10.7075 17.9128 11.1232 18.233 11.3742 18.6716C11.5387 18.9488 11.6271 19.2646 11.6305 19.5869V19.5869C11.6305 20.6435 12.487 21.5 13.5435 21.5H14.7975C15.8505 21.5 16.7055 20.6491 16.7105 19.5961V19.5961C16.7081 19.088 16.9089 18.6 17.2682 18.2407C17.6275 17.8814 18.1155 17.6806 18.6236 17.6831C18.9452 17.6917 19.2596 17.7797 19.5389 17.9393V17.9393C20.4517 18.4653 21.6179 18.1543 22.1476 17.2437V17.2437L22.8067 16.1453C23.0618 15.7074 23.1318 15.1859 23.0012 14.6963C22.8706 14.2067 22.5502 13.7893 22.111 13.5366V13.5366C21.6718 13.2839 21.3514 12.8665 21.2208 12.3769C21.0902 11.8872 21.1603 11.3658 21.4154 10.9279C21.5812 10.6383 21.8214 10.3981 22.111 10.2322V10.2322C23.0161 9.70283 23.3264 8.54343 22.8067 7.63271V7.63271V7.62355Z" stroke="white" stroke-width="1.5" stroke-linecap="round" stroke-linejoin="round"/>
<circle cx="14.1751" cy="11.889" r="2.63616" stroke="white" stroke-width="1.5" stroke-linecap="round" stroke-linejoin="round"/>
</g>
<defs>
<filter id="filter0_d_1_1236" x="-2" y="0" width="32" height="32" filterUnits="userSpaceOnUse" color-interpolation-filters="sRGB">
<feFlood flood-opacity="0" result="BackgroundImageFix"/>
<feColorMatrix in="SourceAlpha" type="matrix" values="0 0 0 0 0 0 0 0 0 0 0 0 0 0 0 0 0 0 127 0" result="hardAlpha"/>
<feOffset dy="4"/>
<feGaussianBlur stdDeviation="2"/>
<feComposite in2="hardAlpha" operator="out"/>
<feColorMatrix type="matrix" values="0 0 0 0 0 0 0 0 0 0 0 0 0 0 0 0 0 0 0.25 0"/>
<feBlend mode="normal" in2="BackgroundImageFix" result="effect1_dropShadow_1_1236"/>
<feBlend mode="normal" in="SourceGraphic" in2="effect1_dropShadow_1_1236" result="shape"/>
</filter>
</defs>
</svg>
